<svg xmlns="http://www.w3.org/2000/svg" viewBox="0 0 14 20" width="112" height="160" shape-rendering="crispEdges">
  <!-- Row 0: hair top -->
  <rect x="2" y="0" width="10" height="1" fill="#1a0a04"/>
  <!-- Row 1 -->
  <rect x="1" y="1" width="1" height="1" fill="#1a0a04"/>
  <rect x="2" y="1" width="9" height="1" fill="#3c1e0c"/>
  <rect x="11" y="1" width="1" height="1" fill="#1a0a04"/>
  <!-- Row 2 -->
  <rect x="0" y="2" width="1" height="1" fill="#1a0a04"/>
  <rect x="1" y="2" width="11" height="1" fill="#3c1e0c"/>
  <rect x="12" y="2" width="1" height="1" fill="#1a0a04"/>
  <!-- Row 3: hair sides + face -->
  <rect x="0" y="3" width="1" height="1" fill="#1a0a04"/>
  <rect x="1" y="3" width="1" height="1" fill="#3c1e0c"/>
  <rect x="2" y="3" width="8" height="1" fill="#f0c49a"/>
  <rect x="10" y="3" width="2" height="1" fill="#3c1e0c"/>
  <rect x="12" y="3" width="1" height="1" fill="#1a0a04"/>
  <!-- Row 4: face -->
  <rect x="1" y="4" width="1" height="1" fill="#1a0a04"/>
  <rect x="2" y="4" width="9" height="1" fill="#f0c49a"/>
  <rect x="11" y="4" width="1" height="1" fill="#1a0a04"/>
  <!-- Row 5: eyebrows -->
  <rect x="2" y="5" width="1" height="1" fill="#f0c49a"/>
  <rect x="3" y="5" width="2" height="1" fill="#1a0a04"/>
  <rect x="5" y="5" width="2" height="1" fill="#f0c49a"/>
  <rect x="7" y="5" width="2" height="1" fill="#1a0a04"/>
  <rect x="9" y="5" width="2" height="1" fill="#f0c49a"/>
  <!-- Row 6: eyes -->
  <rect x="2" y="6" width="1" height="1" fill="#f0c49a"/>
  <rect x="3" y="6" width="1" height="1" fill="#e8d0b0"/>
  <rect x="4" y="6" width="1" height="1" fill="#583010"/>
  <rect x="5" y="6" width="1" height="1" fill="#f0c49a"/>
  <rect x="6" y="6" width="1" height="1" fill="#e8d0b0"/>
  <rect x="7" y="6" width="1" height="1" fill="#583010"/>
  <rect x="8" y="6" width="3" height="1" fill="#f0c49a"/>
  <!-- Row 7: upper nose -->
  <rect x="2" y="7" width="9" height="1" fill="#f0c49a"/>
  <!-- Row 8: nose -->
  <rect x="2" y="8" width="3" height="1" fill="#f0c49a"/>
  <rect x="5" y="8" width="2" height="1" fill="#d09060"/>
  <rect x="7" y="8" width="4" height="1" fill="#f0c49a"/>
  <!-- Row 9: lower face -->
  <rect x="2" y="9" width="9" height="1" fill="#f0c49a"/>
  <!-- Row 10: mouth -->
  <rect x="2" y="10" width="1" height="1" fill="#f0c49a"/>
  <rect x="3" y="10" width="1" height="1" fill="#d09060"/>
  <rect x="4" y="10" width="3" height="1" fill="#c06050"/>
  <rect x="7" y="10" width="1" height="1" fill="#d09060"/>
  <rect x="8" y="10" width="3" height="1" fill="#f0c49a"/>
  <!-- Row 11: chin -->
  <rect x="3" y="11" width="7" height="1" fill="#f0c49a"/>
  <!-- Row 12: collar -->
  <rect x="2" y="12" width="10" height="1" fill="#1a2e50"/>
  <!-- Row 13 -->
  <rect x="1" y="13" width="12" height="1" fill="#1a2e50"/>
  <!-- Row 14 -->
  <rect x="0" y="14" width="14" height="1" fill="#1a2e50"/>
  <!-- Row 15: sweater script hint top -->
  <rect x="0" y="15" width="2" height="1" fill="#1a2e50"/>
  <rect x="2" y="15" width="2" height="1" fill="#3a5888"/>
  <rect x="4" y="15" width="10" height="1" fill="#1a2e50"/>
  <!-- Row 16 -->
  <rect x="0" y="16" width="10" height="1" fill="#1a2e50"/>
  <rect x="10" y="16" width="2" height="1" fill="#3a5888"/>
  <rect x="12" y="16" width="2" height="1" fill="#1a2e50"/>
  <!-- Row 17 -->
  <rect x="0" y="17" width="14" height="1" fill="#1a2e50"/>
  <!-- Row 18: sweater script hint bottom -->
  <rect x="0" y="18" width="2" height="1" fill="#1a2e50"/>
  <rect x="2" y="18" width="2" height="1" fill="#3a5888"/>
  <rect x="4" y="18" width="4" height="1" fill="#1a2e50"/>
  <rect x="8" y="18" width="2" height="1" fill="#3a5888"/>
  <rect x="10" y="18" width="4" height="1" fill="#1a2e50"/>
  <!-- Row 19 -->
  <rect x="0" y="19" width="14" height="1" fill="#1a2e50"/>
</svg>
